<svg width="21" height="21" viewBox="0 0 21 21" fill="none" xmlns="http://www.w3.org/2000/svg">
<path d="M18.0332 9.71653C17.9512 8.14245 17.4037 6.62814 16.4602 5.36553C16.1727 5.67516 15.8654 5.96577 15.5402 6.23553C14.5411 7.06538 13.4247 7.74272 12.2272 8.24553C12.3942 8.59553 12.5472 8.93453 12.6822 9.25453V9.25753C12.7203 9.34694 12.757 9.43696 12.7922 9.52753C14.3062 9.35753 15.9022 9.41953 17.4492 9.62853C17.6552 9.65653 17.8492 9.68653 18.0332 9.71653ZM8.64819 2.26653C9.62273 3.6397 10.5214 5.06517 11.3402 6.53653C12.5632 6.05453 13.5742 5.44653 14.3882 4.76953C14.6707 4.53666 14.9367 4.28439 15.1842 4.01453C13.7452 2.80425 11.9245 2.14186 10.0442 2.14453C9.57622 2.14421 9.10912 2.1847 8.64819 2.26553V2.26653ZM2.29719 8.14153C2.97842 8.12434 3.65883 8.08331 4.33719 8.01853C5.97683 7.87187 7.60247 7.59703 9.19919 7.19653C8.3647 5.74674 7.46374 4.33624 6.49919 2.96953C5.46891 3.47993 4.56045 4.20594 3.83543 5.09832C3.11042 5.9907 2.58581 7.02857 2.29719 8.14153ZM3.82719 15.1795C4.21519 14.6125 4.72519 13.9745 5.40219 13.2805C6.85619 11.7905 8.57219 10.6305 10.5582 9.99053L10.6202 9.97253C10.4552 9.60853 10.3002 9.28353 10.1442 8.97753C8.30819 9.51253 6.37419 9.84653 4.44719 10.0195C3.50719 10.1045 2.66419 10.1415 2.04419 10.1475C2.04242 11.9801 2.67248 13.7573 3.82819 15.1795H3.82719ZM13.0492 17.5595C12.6636 15.6148 12.1177 13.7053 11.4172 11.8505C9.41519 12.5775 7.82019 13.6405 6.58719 14.9085C6.08959 15.4109 5.64801 15.9658 5.27019 16.5635C6.649 17.5923 8.32387 18.147 10.0442 18.1445C11.0741 18.146 12.0946 17.948 13.0492 17.5615V17.5595ZM14.9222 16.4845C16.4835 15.2843 17.547 13.5502 17.9092 11.6145C17.5692 11.5295 17.1382 11.4445 16.6642 11.3785C15.6103 11.2268 14.541 11.2157 13.4842 11.3455C14.0792 13.0244 14.5597 14.7416 14.9222 16.4855V16.4845ZM10.0442 20.1445C4.52119 20.1445 0.0441895 15.6675 0.0441895 10.1445C0.0441895 4.62153 4.52119 0.144531 10.0442 0.144531C15.5672 0.144531 20.0442 4.62153 20.0442 10.1445C20.0442 15.6675 15.5672 20.1445 10.0442 20.1445Z" fill="#C4C4C4"/>
</svg>
