<svg width="21" height="20" viewBox="0 0 21 20" fill="none" xmlns="http://www.w3.org/2000/svg">
<path d="M10.0439 7C9.2483 7 8.48523 7.31607 7.92262 7.87868C7.36002 8.44129 7.04395 9.20435 7.04395 10C7.04395 10.7956 7.36002 11.5587 7.92262 12.1213C8.48523 12.6839 9.2483 13 10.0439 13C10.8396 13 11.6027 12.6839 12.1653 12.1213C12.7279 11.5587 13.0439 10.7956 13.0439 10C13.0439 9.20435 12.7279 8.44129 12.1653 7.87868C11.6027 7.31607 10.8396 7 10.0439 7ZM10.0439 5C11.37 5 12.6418 5.52678 13.5795 6.46447C14.5172 7.40215 15.0439 8.67392 15.0439 10C15.0439 11.3261 14.5172 12.5979 13.5795 13.5355C12.6418 14.4732 11.37 15 10.0439 15C8.71786 15 7.44609 14.4732 6.50841 13.5355C5.57073 12.5979 5.04395 11.3261 5.04395 10C5.04395 8.67392 5.57073 7.40215 6.50841 6.46447C7.44609 5.52678 8.71786 5 10.0439 5ZM16.5439 4.75C16.5439 5.08152 16.4123 5.39946 16.1778 5.63388C15.9434 5.8683 15.6255 6 15.2939 6C14.9624 6 14.6445 5.8683 14.4101 5.63388C14.1756 5.39946 14.0439 5.08152 14.0439 4.75C14.0439 4.41848 14.1756 4.10054 14.4101 3.86612C14.6445 3.6317 14.9624 3.5 15.2939 3.5C15.6255 3.5 15.9434 3.6317 16.1778 3.86612C16.4123 4.10054 16.5439 4.41848 16.5439 4.75ZM10.0439 2C7.56995 2 7.16595 2.007 6.01495 2.058C5.23095 2.095 4.70495 2.2 4.21695 2.39C3.78295 2.558 3.46995 2.759 3.13695 3.093C2.82395 3.3954 2.5833 3.76458 2.43295 4.173C2.24295 4.663 2.13795 5.188 2.10195 5.971C2.04995 7.075 2.04395 7.461 2.04395 10C2.04395 12.474 2.05095 12.878 2.10195 14.029C2.13895 14.812 2.24395 15.339 2.43295 15.826C2.60295 16.261 2.80295 16.574 3.13495 16.906C3.47195 17.242 3.78495 17.443 4.21495 17.609C4.70895 17.8 5.23495 17.906 6.01495 17.942C7.11895 17.994 7.50495 18 10.0439 18C12.5179 18 12.9219 17.993 14.0729 17.942C14.8549 17.905 15.3819 17.8 15.8699 17.611C16.3029 17.442 16.6179 17.241 16.9499 16.909C17.2869 16.572 17.4879 16.259 17.6539 15.829C17.8439 15.336 17.9499 14.809 17.9859 14.029C18.0379 12.925 18.0439 12.539 18.0439 10C18.0439 7.526 18.0369 7.122 17.9859 5.971C17.9489 5.189 17.8439 4.661 17.6539 4.173C17.5032 3.765 17.263 3.39596 16.9509 3.093C16.6487 2.77985 16.2795 2.53917 15.8709 2.389C15.3809 2.199 14.8549 2.094 14.0729 2.058C12.9689 2.006 12.5829 2 10.0439 2ZM10.0439 0C12.7609 0 13.0999 0.00999994 14.1659 0.0599999C15.2309 0.11 15.9559 0.277 16.5939 0.525C17.2539 0.779 17.8099 1.123 18.3659 1.678C18.8744 2.1779 19.2679 2.78259 19.5189 3.45C19.7659 4.087 19.9339 4.813 19.9839 5.878C20.0309 6.944 20.0439 7.283 20.0439 10C20.0439 12.717 20.0339 13.056 19.9839 14.122C19.9339 15.187 19.7659 15.912 19.5189 16.55C19.2686 17.2178 18.8751 17.8226 18.3659 18.322C17.8659 18.8303 17.2613 19.2238 16.5939 19.475C15.9569 19.722 15.2309 19.89 14.1659 19.94C13.0999 19.987 12.7609 20 10.0439 20C7.32695 20 6.98795 19.99 5.92195 19.94C4.85695 19.89 4.13195 19.722 3.49395 19.475C2.82627 19.2245 2.22147 18.8309 1.72195 18.322C1.21335 17.8222 0.819877 17.2175 0.568945 16.55C0.320945 15.913 0.153945 15.187 0.103945 14.122C0.0569453 13.056 0.0439453 12.717 0.0439453 10C0.0439453 7.283 0.0539453 6.944 0.103945 5.878C0.153945 4.812 0.320945 4.088 0.568945 3.45C0.819182 2.78218 1.21275 2.17732 1.72195 1.678C2.22162 1.16923 2.82637 0.775729 3.49395 0.525C4.13195 0.277 4.85595 0.11 5.92195 0.0599999C6.98795 0.0129999 7.32695 0 10.0439 0Z" fill="#C4C4C4"/>
</svg>
