<svg width="20" height="18" viewBox="0 0 20 18" fill="none" xmlns="http://www.w3.org/2000/svg">
<path d="M1.79643 0.608887L18.2964 0.608887C18.5395 0.608887 18.7727 0.705464 18.9446 0.877372C19.1165 1.04928 19.2131 1.28244 19.2131 1.52555L19.2131 16.1922C19.2131 16.4353 19.1165 16.6685 18.9446 16.8404C18.7727 17.0123 18.5395 17.1089 18.2964 17.1089L1.79643 17.1089C1.55331 17.1089 1.32015 17.0123 1.14825 16.8404C0.976338 16.6685 0.879761 16.4353 0.879761 16.1922L0.879761 1.52555C0.879761 1.28244 0.976338 1.04928 1.14825 0.877372C1.32015 0.705464 1.55331 0.608887 1.79643 0.608887ZM17.3798 4.49372L10.1124 11.0021L2.71309 4.47355L2.71309 15.2756L17.3798 15.2756L17.3798 4.49372ZM3.18151 2.44222L10.1023 8.54905L16.9233 2.44222L3.18151 2.44222Z" fill="#C4C4C4"/>
</svg>
